<?xml version="1.0" encoding="utf-8"?>
<!-- Generator: Adobe Illustrator 28.3.0, SVG Export Plug-In . SVG Version: 6.00 Build 0)  -->
<svg version="1.1" id="Capa_1" xmlns="http://www.w3.org/2000/svg" xmlns:xlink="http://www.w3.org/1999/xlink" x="0px" y="0px"
	 viewBox="0 0 328 54" style="enable-background:new 0 0 328 54;" xml:space="preserve">
<style type="text/css">
	.st0{fill:#FFFFFF;}
</style>
<g>
	<path class="st0" d="M24.3,45.5V20.3h1.7v25.2H24.3z"/>
	<path class="st0" d="M50.4,45.5l-15-20.4c-0.3-0.4-0.6-0.8-0.8-1.2l-0.2-0.4h-0.1c0,0.3,0,0.7,0,1.1v20.8h-1.7V20.3h1.3l14.9,20.2
		c0.3,0.4,0.7,1,1.1,1.6H50c-0.1-0.8-0.1-1.5-0.1-2.1V20.3h1.7v25.2H50.4z"/>
	<path class="st0" d="M79.9,45.5V27.6c0-0.4,0.1-1.7,0.2-3.7H80c-0.4,0.9-0.7,1.7-0.9,2.2l-9,19.4h-0.6l-9-19.3
		c-0.3-0.6-0.6-1.4-0.8-2.4h-0.1c0.1,1.1,0.1,2.2,0.1,3.4v18.3h-1.7V20.3h1.6l9.4,20.3c0.1,0.1,0.1,0.3,0.2,0.5s0.1,0.4,0.2,0.6
		c0.1,0.3,0.2,0.6,0.4,1H70l0.2-0.6c0,0,0.2-0.6,0.6-1.7L80,20.3h1.5v25.2H79.9z"/>
	<path class="st0" d="M98.4,46c-3.6,0-6.4-1.2-8.5-3.6s-3.2-5.4-3.2-9.2c0-4,1.1-7.2,3.3-9.7s5.1-3.6,8.9-3.6c3.4,0,6.1,1.2,8.3,3.5
		s3.2,5.4,3.2,9.1c0,4.2-1.1,7.5-3.2,9.8S102,46,98.4,46z M98.6,21.5c-2.9,0-5.3,1.1-7.2,3.2s-2.8,4.9-2.8,8.3
		c0,3.5,0.9,6.2,2.7,8.3s4.2,3.1,7.2,3.1c3.1,0,5.6-1,7.4-3s2.7-4.9,2.7-8.5c0-3.6-0.9-6.3-2.7-8.3S101.7,21.5,98.6,21.5z"/>
	<path class="st0" d="M115.5,45.5V20.3h6.6c2,0,3.6,0.5,4.7,1.6s1.8,2.5,1.8,4.2c0,1.5-0.4,2.7-1.2,3.8s-1.9,1.8-3.3,2.3v0.1
		c1.7,0.2,3.1,0.8,4.1,1.9s1.5,2.5,1.5,4.1c0,2.1-0.7,3.9-2.1,5.2s-3.2,2-5.5,2H115.5z M117.2,21.9v9.8h3.5c1.8,0,3.3-0.5,4.4-1.4
		s1.7-2.2,1.7-3.8c0-3-1.8-4.5-5.4-4.5H117.2z M117.2,33.3v10.7h4.7c2,0,3.5-0.5,4.5-1.4s1.6-2.3,1.6-4c0-3.5-2.4-5.2-7.1-5.2H117.2
		z"/>
	<path class="st0" d="M135,45.5V20.3h1.7v25.2H135z"/>
	<path class="st0" d="M143.3,45.5V20.3h1.7v23.6h10.1v1.6H143.3z"/>
	<path class="st0" d="M159.7,45.5V20.3h1.7v25.2H159.7z"/>
	<path class="st0" d="M184.4,45.5l-2.9-7.8h-10.9l-2.9,7.8h-1.9l9.5-25.2h1.7l9.4,25.2H184.4z M176.6,24.4c-0.1-0.4-0.2-0.7-0.3-1
		c-0.1-0.3-0.2-0.6-0.3-0.9H176c-0.2,0.8-0.4,1.4-0.6,1.9l-4.2,11.7h9.7L176.6,24.4z"/>
	<path class="st0" d="M203.5,45.5l-3.4-7.4c-0.7-1.5-1.4-2.5-2.1-3.1s-1.6-0.8-2.6-0.8h-3.1v11.2h-1.7V20.3h7c2.2,0,4,0.6,5.2,1.8
		s1.9,2.8,1.9,4.8c0,1.8-0.5,3.3-1.6,4.6s-2.5,2-4.4,2.4v0.1c1,0.4,2,1.6,2.9,3.6l3.7,8H203.5z M192.3,21.9v10.8h4.3
		c1.9,0,3.4-0.5,4.6-1.5s1.7-2.4,1.7-4.1c0-1.6-0.5-2.9-1.5-3.8s-2.5-1.4-4.4-1.4H192.3z"/>
	<path class="st0" d="M210.6,45.5V20.3h1.7v25.2H210.6z"/>
	<path class="st0" d="M235.2,45.5l-2.9-7.8h-10.9l-2.9,7.8h-1.9l9.5-25.2h1.7l9.4,25.2H235.2z M227.5,24.4c-0.1-0.4-0.2-0.7-0.3-1
		c-0.1-0.3-0.2-0.6-0.3-0.9h-0.1c-0.2,0.8-0.4,1.4-0.6,1.9L222,36.1h9.7L227.5,24.4z"/>
	<path class="st0" d="M247.4,9.5h13.2v7.2h-5.4v6.8h4.8v6.9h-4.8v15.1h-7.8V9.5z"/>
	<path class="st0" d="M280.4,22.8h-7.8v-3.3c0-2.1-0.1-3.4-0.2-3.9s-0.5-0.8-1.1-0.8c-0.5,0-0.8,0.2-1,0.7c-0.2,0.4-0.3,1.6-0.3,3.4
		v17.3c0,1.6,0.1,2.7,0.3,3.2c0.2,0.5,0.5,0.8,1,0.8c0.6,0,1-0.3,1.2-0.9c0.2-0.6,0.3-1.7,0.3-3.4v-4.3h-1.6v-5.5h9.1v19.3h-4.9
		l-0.7-2.6c-0.5,1.1-1.2,1.9-2,2.5c-0.8,0.6-1.8,0.8-2.9,0.8c-1.3,0-2.5-0.4-3.7-1.1c-1.1-0.8-2-1.7-2.6-2.8c-0.6-1.1-1-2.3-1.1-3.6
		s-0.2-3.1-0.2-5.6V22.5c0-3.4,0.2-5.9,0.5-7.5c0.3-1.6,1.2-3,2.7-4.3c1.5-1.3,3.4-1.9,5.7-1.9c2.3,0,4.2,0.6,5.7,1.7
		c1.5,1.1,2.5,2.5,3,4c0.5,1.6,0.7,3.8,0.7,6.8V22.8z"/>
	<path class="st0" d="M299.2,9.5v7.2h-4.6v28.8h-7.8V16.7h-4.6V9.5H299.2z"/>
</g>
</svg>
